<?xml version="1.0" encoding="UTF-8"?>
<svg id="Layer_2" data-name="Layer 2" xmlns="http://www.w3.org/2000/svg" viewBox="0 0 89.25 88.15">
  <g id="Layer_1-2" data-name="Layer 1">
    <path d="m50.84,0l3.09,5.08,2.35,3.9-2.35,3.9-3.53,5.44c11.63,2.72,20.6,13.17,20.6,26.05,0,2.35-.37,4.64-.81,6.62l2.72,5.08,2.72,5.08h10.08c1.91-5.08,3.53-10.89,3.53-16.7C88.15,21.34,71.81,3.09,50.84,0Zm15.16,58.64c-4.64,6.99-12.8,11.63-21.78,11.63s-17.07-4.64-21.78-11.63l-10.08-.81-5.08,8.9-.37.81c7.8,12.43,21.78,20.6,37.3,20.6s29.14-8.17,37.3-20.6l-10.89.37-4.64-9.27Zm-53.56-7.36l6.18.37c-.81-2.35-1.18-5.08-1.18-7.8,0-13.98,10.89-25.24,24.5-26.41l5.81-8.53L42.67.37l-.37-.37C18.98,1.18,0,20.6,0,44.29c0,5.81,1.18,11.26,3.09,16.33l2.72-5.08,2.35-3.9,4.27-.37Z"/>
  </g>
</svg>